<svg xmlns="http://www.w3.org/2000/svg" xmlns:xlink="http://www.w3.org/1999/xlink" width="500" zoomAndPan="magnify" viewBox="0 0 375 374.999991" height="500" preserveAspectRatio="xMidYMid meet" version="1.0"><defs><g/><clipPath id="02948207d8"><path d="M 10.320312 207 L 74 207 L 74 245 L 10.320312 245 Z M 10.320312 207 " clip-rule="nonzero"/></clipPath><clipPath id="f74dce92b9"><path d="M 10.628906 145.058594 L 69.878906 145.058594 L 69.878906 202.808594 L 10.628906 202.808594 Z M 10.628906 145.058594 " clip-rule="nonzero"/></clipPath></defs><g clip-path="url(#02948207d8)"><path fill="#ffffff" d="M 72.640625 244.300781 L 33.230469 244.300781 C 32.523438 244.300781 31.964844 243.742188 31.964844 243.035156 L 31.964844 234.316406 C 31.964844 233.648438 32.523438 233.089844 33.230469 233.089844 L 39.339844 233.089844 L 39.339844 226.570312 C 38.445312 226.679688 37.253906 226.792969 35.800781 226.792969 C 29.503906 226.792969 17.808594 224.855469 10.546875 211.96875 C 10.320312 211.59375 10.320312 211.113281 10.546875 210.738281 C 10.769531 210.367188 11.179688 210.105469 11.625 210.105469 L 33.828125 210.105469 L 33.828125 209.992188 C 33.828125 209.285156 34.347656 208.726562 35.054688 208.726562 L 35.652344 208.726562 L 35.652344 208.617188 C 35.652344 207.90625 36.210938 207.347656 36.878906 207.347656 L 72.714844 207.347656 C 73.382812 207.347656 73.941406 207.90625 73.941406 208.617188 L 73.941406 219.15625 C 73.941406 219.605469 73.71875 220.015625 73.347656 220.238281 L 68.09375 223.253906 L 68.09375 231.300781 L 73.273438 234.28125 C 73.644531 234.503906 73.867188 234.914062 73.867188 235.359375 L 73.867188 243.035156 C 73.867188 243.742188 73.308594 244.300781 72.640625 244.300781 Z M 34.460938 241.804688 L 71.410156 241.804688 L 71.410156 236.105469 L 66.234375 233.089844 C 65.824219 232.863281 65.597656 232.453125 65.597656 232.007812 L 65.597656 222.546875 C 65.597656 222.101562 65.824219 221.691406 66.234375 221.464844 L 71.484375 218.449219 L 71.484375 209.84375 L 38.148438 209.84375 L 38.148438 209.992188 C 38.148438 210.664062 37.589844 211.222656 36.878906 211.222656 L 36.285156 211.222656 L 36.285156 211.371094 C 36.285156 212.042969 35.726562 212.601562 35.054688 212.601562 L 13.824219 212.601562 C 20.527344 222.734375 30.363281 224.296875 35.800781 224.296875 C 38.480469 224.296875 40.269531 223.925781 40.308594 223.925781 C 40.679688 223.851562 41.050781 223.925781 41.351562 224.1875 C 41.648438 224.410156 41.796875 224.746094 41.796875 225.117188 L 41.796875 234.316406 C 41.796875 235.023438 41.238281 235.546875 40.566406 235.546875 L 34.460938 235.546875 Z M 34.460938 241.804688 " fill-opacity="1" fill-rule="evenodd"/></g><g clip-path="url(#f74dce92b9)"><path fill="#ffffff" d="M 51.566406 146.484375 L 54.75 153.144531 C 54.863281 153.375 54.957031 153.613281 55.039062 153.855469 C 55.117188 154.097656 55.183594 154.347656 55.234375 154.597656 C 55.28125 154.847656 55.316406 155.101562 55.332031 155.355469 C 55.351562 155.609375 55.351562 155.867188 55.335938 156.121094 C 55.320312 156.378906 55.289062 156.628906 55.246094 156.882812 C 55.199219 157.132812 55.136719 157.378906 55.058594 157.625 C 54.980469 157.867188 54.886719 158.105469 54.777344 158.335938 C 54.667969 158.570312 54.546875 158.792969 54.410156 159.011719 C 54.273438 159.226562 54.125 159.433594 53.960938 159.628906 C 53.800781 159.828125 53.625 160.015625 53.441406 160.191406 C 53.253906 160.367188 53.058594 160.527344 52.851562 160.679688 C 52.644531 160.832031 52.429688 160.96875 52.203125 161.089844 C 51.980469 161.214844 51.75 161.324219 51.511719 161.417969 C 51.273438 161.511719 51.03125 161.589844 50.785156 161.65625 C 50.535156 161.71875 50.285156 161.765625 50.03125 161.800781 C 49.777344 161.832031 49.523438 161.847656 49.269531 161.847656 L 47.847656 161.847656 C 47.585938 161.847656 47.359375 161.941406 47.171875 162.128906 C 46.984375 162.3125 46.890625 162.539062 46.890625 162.804688 L 46.890625 168.832031 L 11.386719 168.832031 C 11.121094 168.832031 10.894531 168.925781 10.710938 169.109375 C 10.523438 169.296875 10.429688 169.523438 10.429688 169.789062 L 10.429688 178.941406 C 10.429688 179.207031 10.523438 179.433594 10.710938 179.621094 C 10.894531 179.808594 11.121094 179.898438 11.386719 179.902344 L 46.890625 179.902344 L 46.890625 185.878906 C 46.890625 186.144531 46.984375 186.371094 47.171875 186.558594 C 47.359375 186.742188 47.585938 186.835938 47.847656 186.835938 L 50.445312 186.835938 L 50.445312 192.617188 L 47.230469 192.617188 C 46.96875 192.617188 46.742188 192.707031 46.554688 192.894531 C 46.367188 193.082031 46.273438 193.308594 46.273438 193.574219 L 46.273438 201.734375 C 46.273438 202 46.367188 202.222656 46.554688 202.410156 C 46.742188 202.597656 46.96875 202.691406 47.230469 202.691406 L 63.265625 202.691406 C 63.527344 202.691406 63.753906 202.597656 63.941406 202.410156 C 64.128906 202.222656 64.222656 202 64.222656 201.734375 L 64.222656 193.574219 C 64.222656 193.308594 64.128906 193.082031 63.941406 192.894531 C 63.753906 192.710938 63.527344 192.617188 63.265625 192.617188 L 60.050781 192.617188 L 60.050781 186.839844 L 62.644531 186.839844 C 62.910156 186.835938 63.136719 186.746094 63.320312 186.558594 C 63.507812 186.371094 63.601562 186.144531 63.601562 185.878906 L 63.601562 179.902344 L 68.816406 179.902344 C 69.078125 179.898438 69.304688 179.808594 69.492188 179.621094 C 69.679688 179.433594 69.773438 179.207031 69.773438 178.941406 L 69.773438 169.789062 C 69.773438 169.523438 69.679688 169.296875 69.492188 169.109375 C 69.304688 168.925781 69.078125 168.832031 68.816406 168.832031 L 63.601562 168.832031 L 63.601562 166.644531 C 63.597656 164.578125 63.355469 162.542969 62.882812 160.53125 C 62.410156 158.519531 61.710938 156.589844 60.792969 154.742188 C 59.875 152.890625 58.757812 151.167969 57.445312 149.578125 C 56.128906 147.984375 54.652344 146.558594 53.007812 145.308594 C 52.832031 145.171875 52.636719 145.109375 52.414062 145.113281 C 52.195312 145.117188 51.996094 145.1875 51.828125 145.328125 C 51.65625 145.46875 51.546875 145.644531 51.496094 145.859375 C 51.449219 146.074219 51.472656 146.285156 51.566406 146.484375 Z M 17.242188 177.984375 L 17.242188 170.746094 L 18.847656 170.746094 L 18.847656 177.984375 Z M 12.34375 170.746094 L 15.328125 170.746094 L 15.328125 177.984375 L 12.34375 177.984375 Z M 20.761719 177.984375 L 20.761719 170.746094 L 46.890625 170.746094 L 46.890625 177.984375 Z M 62.308594 194.53125 L 62.308594 200.777344 L 48.1875 200.777344 L 48.1875 194.53125 Z M 58.136719 192.617188 L 52.359375 192.617188 L 52.359375 186.839844 L 58.136719 186.839844 Z M 67.859375 170.746094 L 67.859375 177.984375 L 63.601562 177.984375 L 63.601562 170.746094 Z M 61.6875 166.644531 L 61.6875 184.921875 L 48.804688 184.921875 L 48.804688 163.761719 L 49.269531 163.761719 C 49.605469 163.761719 49.9375 163.742188 50.273438 163.699219 C 50.605469 163.65625 50.9375 163.59375 51.261719 163.507812 C 51.585938 163.425781 51.90625 163.320312 52.21875 163.195312 C 52.53125 163.074219 52.835938 162.929688 53.128906 162.765625 C 53.425781 162.605469 53.707031 162.425781 53.980469 162.226562 C 54.25 162.027344 54.507812 161.8125 54.753906 161.582031 C 54.996094 161.351562 55.226562 161.105469 55.441406 160.847656 C 55.652344 160.585938 55.851562 160.316406 56.03125 160.03125 C 56.210938 159.746094 56.371094 159.453125 56.511719 159.144531 C 56.65625 158.839844 56.777344 158.527344 56.878906 158.207031 C 56.980469 157.886719 57.0625 157.5625 57.125 157.234375 C 57.1875 156.902344 57.226562 156.570312 57.246094 156.234375 C 57.265625 155.898438 57.265625 155.5625 57.242188 155.226562 C 57.21875 154.890625 57.175781 154.558594 57.109375 154.226562 C 57.046875 153.898438 56.960938 153.574219 56.855469 153.253906 C 56.75 152.933594 56.625 152.625 56.476562 152.320312 L 55.464844 150.199219 C 57.460938 152.472656 58.996094 155.023438 60.066406 157.855469 C 61.140625 160.6875 61.679688 163.617188 61.6875 166.644531 Z M 61.6875 166.644531 " fill-opacity="1" fill-rule="nonzero"/></g><g fill="#ffffff" fill-opacity="1"><g transform="translate(78.384513, 189.457824)"><g><path d="M 23.25 0.78125 C 20.945312 0.78125 18.75 0.441406 16.65625 -0.234375 C 14.5625 -0.921875 12.644531 -1.890625 10.90625 -3.140625 C 9.164062 -4.390625 7.648438 -5.863281 6.359375 -7.5625 C 5.078125 -9.257812 4.082031 -11.125 3.375 -13.15625 C 2.675781 -15.195312 2.328125 -17.351562 2.328125 -19.625 C 2.328125 -21.90625 2.675781 -24.066406 3.375 -26.109375 C 4.082031 -28.160156 5.078125 -30.035156 6.359375 -31.734375 C 7.648438 -33.429688 9.164062 -34.898438 10.90625 -36.140625 C 12.644531 -37.378906 14.5625 -38.335938 16.65625 -39.015625 C 18.75 -39.703125 20.945312 -40.046875 23.25 -40.046875 C 25.570312 -40.046875 27.78125 -39.703125 29.875 -39.015625 C 31.96875 -38.335938 33.890625 -37.378906 35.640625 -36.140625 C 37.390625 -34.898438 38.90625 -33.429688 40.1875 -31.734375 C 41.476562 -30.035156 42.472656 -28.160156 43.171875 -26.109375 C 43.867188 -24.066406 44.21875 -21.90625 44.21875 -19.625 C 44.21875 -17.351562 43.867188 -15.195312 43.171875 -13.15625 C 42.472656 -11.125 41.476562 -9.257812 40.1875 -7.5625 C 38.90625 -5.863281 37.390625 -4.390625 35.640625 -3.140625 C 33.890625 -1.890625 31.96875 -0.921875 29.875 -0.234375 C 27.78125 0.441406 25.570312 0.78125 23.25 0.78125 Z M 23.25 -3.953125 C 25.4375 -3.953125 27.488281 -4.34375 29.40625 -5.125 C 31.332031 -5.914062 33.023438 -7.019531 34.484375 -8.4375 C 35.941406 -9.863281 37.078125 -11.523438 37.890625 -13.421875 C 38.710938 -15.328125 39.125 -17.394531 39.125 -19.625 C 39.125 -21.84375 38.710938 -23.90625 37.890625 -25.8125 C 37.078125 -27.726562 35.941406 -29.394531 34.484375 -30.8125 C 33.023438 -32.238281 31.332031 -33.347656 29.40625 -34.140625 C 27.488281 -34.941406 25.4375 -35.34375 23.25 -35.34375 C 21.0625 -35.34375 19.007812 -34.941406 17.09375 -34.140625 C 15.1875 -33.347656 13.503906 -32.238281 12.046875 -30.8125 C 10.597656 -29.394531 9.46875 -27.726562 8.65625 -25.8125 C 7.84375 -23.90625 7.4375 -21.84375 7.4375 -19.625 C 7.4375 -17.394531 7.84375 -15.328125 8.65625 -13.421875 C 9.46875 -11.523438 10.597656 -9.863281 12.046875 -8.4375 C 13.503906 -7.019531 15.1875 -5.914062 17.09375 -5.125 C 19.007812 -4.34375 21.0625 -3.953125 23.25 -3.953125 Z M 23.25 -3.953125 "/></g></g></g><g fill="#ffffff" fill-opacity="1"><g transform="translate(121.511032, 189.457824)"><g><path d="M 9.703125 0 L 4.75 0 L 4.75 -29.390625 L 9.5 -29.390625 L 9.5 -23.703125 C 10.0625 -24.972656 10.875 -26.097656 11.9375 -27.078125 C 13.007812 -28.054688 14.265625 -28.820312 15.703125 -29.375 C 17.140625 -29.9375 18.6875 -30.21875 20.34375 -30.21875 C 24.238281 -30.21875 27.191406 -29.007812 29.203125 -26.59375 C 31.222656 -24.1875 32.234375 -20.632812 32.234375 -15.9375 L 32.234375 0 L 27.28125 0 L 27.28125 -15.84375 C 27.28125 -19.226562 26.550781 -21.695312 25.09375 -23.25 C 23.632812 -24.800781 21.628906 -25.578125 19.078125 -25.578125 C 17.847656 -25.578125 16.671875 -25.347656 15.546875 -24.890625 C 14.421875 -24.429688 13.421875 -23.757812 12.546875 -22.875 C 11.671875 -21.988281 10.976562 -20.921875 10.46875 -19.671875 C 9.957031 -18.421875 9.703125 -17.007812 9.703125 -15.4375 Z M 9.703125 0 "/></g></g></g><g fill="#ffffff" fill-opacity="1"><g transform="translate(154.728707, 189.457824)"><g><path d="M 6.3125 10.03125 L 1.46875 10.03125 L 1.46875 5.84375 L 6.34375 5.84375 C 7.53125 5.84375 8.488281 5.628906 9.21875 5.203125 C 9.945312 4.785156 10.566406 4.140625 11.078125 3.265625 C 11.585938 2.390625 12.09375 1.289062 12.59375 -0.03125 L 12.90625 -0.859375 L 1.234375 -29.390625 L 6.515625 -29.390625 L 14.84375 -8.609375 L 15.53125 -6.015625 L 16.28125 -8.578125 L 24.546875 -29.359375 L 29.8125 -29.390625 L 18.234375 -0.8125 C 17.410156 1.269531 16.617188 3.003906 15.859375 4.390625 C 15.097656 5.785156 14.285156 6.894531 13.421875 7.71875 C 12.554688 8.539062 11.550781 9.128906 10.40625 9.484375 C 9.269531 9.847656 7.90625 10.03125 6.3125 10.03125 Z M 6.3125 10.03125 "/></g></g></g><g fill="#ffffff" fill-opacity="1"><g transform="translate(181.494113, 189.457824)"><g><path d="M 6.9375 0 L 1.125 0 L 11.328125 -14.984375 L 1.390625 -29.390625 L 7.265625 -29.390625 L 14.75 -18.328125 L 14.78125 -18.328125 L 22.296875 -29.390625 L 28.140625 -29.390625 L 18.203125 -14.984375 L 28.4375 0 L 22.46875 0 L 14.71875 -11.46875 Z M 6.9375 0 "/></g></g></g><g fill="#ffffff" fill-opacity="1"><g transform="translate(207.625814, 189.457824)"><g><path d="M 10.421875 0 L 5.328125 0 L 5.328125 -39.1875 L 31.375 -39.1875 L 31.375 -34.546875 L 10.421875 -34.546875 L 10.421875 -20.765625 L 28.640625 -20.765625 L 28.640625 -16.421875 L 10.421875 -16.421875 Z M 10.421875 0 "/></g></g></g><g fill="#ffffff" fill-opacity="1"><g transform="translate(237.329307, 189.457824)"><g><path d="M 17.546875 0.828125 C 15.378906 0.828125 13.367188 0.429688 11.515625 -0.359375 C 9.660156 -1.160156 8.039062 -2.269531 6.65625 -3.6875 C 5.269531 -5.101562 4.191406 -6.753906 3.421875 -8.640625 C 2.660156 -10.523438 2.28125 -12.539062 2.28125 -14.6875 C 2.28125 -16.84375 2.660156 -18.851562 3.421875 -20.71875 C 4.191406 -22.59375 5.265625 -24.238281 6.640625 -25.65625 C 8.015625 -27.082031 9.628906 -28.195312 11.484375 -29 C 13.335938 -29.8125 15.359375 -30.21875 17.546875 -30.21875 C 19.734375 -30.21875 21.757812 -29.816406 23.625 -29.015625 C 25.488281 -28.222656 27.109375 -27.113281 28.484375 -25.6875 C 29.867188 -24.269531 30.945312 -22.617188 31.71875 -20.734375 C 32.488281 -18.859375 32.875 -16.84375 32.875 -14.6875 C 32.875 -12.539062 32.488281 -10.523438 31.71875 -8.640625 C 30.945312 -6.753906 29.867188 -5.101562 28.484375 -3.6875 C 27.109375 -2.269531 25.488281 -1.160156 23.625 -0.359375 C 21.757812 0.429688 19.734375 0.828125 17.546875 0.828125 Z M 17.609375 -3.828125 C 19.066406 -3.828125 20.414062 -4.09375 21.65625 -4.625 C 22.90625 -5.164062 24 -5.925781 24.9375 -6.90625 C 25.882812 -7.894531 26.617188 -9.050781 27.140625 -10.375 C 27.660156 -11.695312 27.921875 -13.132812 27.921875 -14.6875 C 27.921875 -16.25 27.660156 -17.6875 27.140625 -19 C 26.617188 -20.3125 25.882812 -21.457031 24.9375 -22.4375 C 24 -23.414062 22.90625 -24.175781 21.65625 -24.71875 C 20.414062 -25.269531 19.066406 -25.546875 17.609375 -25.546875 C 16.140625 -25.546875 14.773438 -25.269531 13.515625 -24.71875 C 12.265625 -24.175781 11.164062 -23.414062 10.21875 -22.4375 C 9.28125 -21.457031 8.546875 -20.3125 8.015625 -19 C 7.492188 -17.6875 7.234375 -16.25 7.234375 -14.6875 C 7.234375 -13.132812 7.492188 -11.695312 8.015625 -10.375 C 8.546875 -9.050781 9.28125 -7.894531 10.21875 -6.90625 C 11.164062 -5.925781 12.265625 -5.164062 13.515625 -4.625 C 14.773438 -4.09375 16.140625 -3.828125 17.609375 -3.828125 Z M 17.609375 -3.828125 "/></g></g></g><g fill="#ffffff" fill-opacity="1"><g transform="translate(269.049134, 189.457824)"><g><path d="M 9.734375 0 L 4.75 0 L 4.75 -29.390625 L 9.53125 -29.390625 L 9.53125 -22.8125 C 10.257812 -24.851562 11.394531 -26.457031 12.9375 -27.625 C 14.488281 -28.800781 16.332031 -29.390625 18.46875 -29.390625 L 21.3125 -29.390625 L 21.3125 -25.03125 L 18.71875 -25.03125 C 17.007812 -25.03125 15.472656 -24.585938 14.109375 -23.703125 C 12.753906 -22.828125 11.6875 -21.550781 10.90625 -19.875 C 10.125 -18.207031 9.734375 -16.191406 9.734375 -13.828125 Z M 9.734375 0 "/></g></g></g><g fill="#ffffff" fill-opacity="1"><g transform="translate(287.979652, 189.457824)"><g><path d="M 17.625 11.0625 C 15.15625 11.0625 13.046875 10.75 11.296875 10.125 C 9.546875 9.5 8.109375 8.660156 6.984375 7.609375 C 5.859375 6.566406 5.015625 5.398438 4.453125 4.109375 C 3.898438 2.828125 3.585938 1.515625 3.515625 0.171875 L 8.203125 0.171875 C 8.398438 1.347656 8.828125 2.441406 9.484375 3.453125 C 10.148438 4.472656 11.140625 5.289062 12.453125 5.90625 C 13.773438 6.519531 15.5 6.828125 17.625 6.828125 C 19.53125 6.828125 21.148438 6.535156 22.484375 5.953125 C 23.816406 5.367188 24.894531 4.570312 25.71875 3.5625 C 26.550781 2.550781 27.160156 1.410156 27.546875 0.140625 C 27.929688 -1.117188 28.125 -2.429688 28.125 -3.796875 L 28.125 -7.4375 C 27.425781 -5.957031 26.5 -4.703125 25.34375 -3.671875 C 24.195312 -2.640625 22.890625 -1.859375 21.421875 -1.328125 C 19.953125 -0.804688 18.378906 -0.546875 16.703125 -0.546875 C 14.628906 -0.546875 12.71875 -0.925781 10.96875 -1.6875 C 9.226562 -2.445312 7.703125 -3.503906 6.390625 -4.859375 C 5.085938 -6.210938 4.078125 -7.773438 3.359375 -9.546875 C 2.640625 -11.328125 2.28125 -13.222656 2.28125 -15.234375 C 2.28125 -17.253906 2.632812 -19.160156 3.34375 -20.953125 C 4.050781 -22.753906 5.050781 -24.34375 6.34375 -25.71875 C 7.644531 -27.101562 9.164062 -28.191406 10.90625 -28.984375 C 12.644531 -29.785156 14.53125 -30.1875 16.5625 -30.1875 C 18.445312 -30.1875 20.144531 -29.863281 21.65625 -29.21875 C 23.175781 -28.582031 24.488281 -27.722656 25.59375 -26.640625 C 26.695312 -25.566406 27.539062 -24.378906 28.125 -23.078125 L 28.125 -29.390625 L 32.875 -29.390625 L 32.875 -3.953125 C 32.875 -1.910156 32.5625 0.015625 31.9375 1.828125 C 31.3125 3.640625 30.367188 5.238281 29.109375 6.625 C 27.847656 8.007812 26.257812 9.09375 24.34375 9.875 C 22.4375 10.664062 20.195312 11.0625 17.625 11.0625 Z M 17.578125 -4.921875 C 19.015625 -4.921875 20.363281 -5.191406 21.625 -5.734375 C 22.882812 -6.273438 23.984375 -7.019531 24.921875 -7.96875 C 25.859375 -8.914062 26.59375 -10.015625 27.125 -11.265625 C 27.664062 -12.515625 27.9375 -13.835938 27.9375 -15.234375 C 27.9375 -16.640625 27.671875 -17.960938 27.140625 -19.203125 C 26.617188 -20.441406 25.882812 -21.535156 24.9375 -22.484375 C 23.988281 -23.429688 22.890625 -24.175781 21.640625 -24.71875 C 20.390625 -25.269531 19.046875 -25.546875 17.609375 -25.546875 C 16.160156 -25.546875 14.804688 -25.285156 13.546875 -24.765625 C 12.296875 -24.253906 11.191406 -23.53125 10.234375 -22.59375 C 9.285156 -21.664062 8.539062 -20.578125 8 -19.328125 C 7.46875 -18.078125 7.203125 -16.710938 7.203125 -15.234375 C 7.203125 -13.773438 7.46875 -12.421875 8 -11.171875 C 8.539062 -9.929688 9.28125 -8.835938 10.21875 -7.890625 C 11.164062 -6.953125 12.265625 -6.222656 13.515625 -5.703125 C 14.773438 -5.179688 16.128906 -4.921875 17.578125 -4.921875 Z M 17.578125 -4.921875 "/></g></g></g><g fill="#ffffff" fill-opacity="1"><g transform="translate(322.176679, 189.457824)"><g><path d="M 31.75 -15.40625 C 31.75 -15.15625 31.742188 -14.890625 31.734375 -14.609375 C 31.722656 -14.335938 31.695312 -13.929688 31.65625 -13.390625 L 7.28125 -13.390625 C 7.5 -11.429688 8.078125 -9.734375 9.015625 -8.296875 C 9.953125 -6.859375 11.128906 -5.75 12.546875 -4.96875 C 13.972656 -4.1875 15.492188 -3.796875 17.109375 -3.796875 C 19.085938 -3.796875 20.773438 -4.222656 22.171875 -5.078125 C 23.578125 -5.929688 24.609375 -7.1875 25.265625 -8.84375 L 30.828125 -8.84375 C 30.398438 -7.5 29.769531 -6.238281 28.9375 -5.0625 C 28.101562 -3.894531 27.09375 -2.875 25.90625 -2 C 24.726562 -1.125 23.40625 -0.4375 21.9375 0.0625 C 20.46875 0.5625 18.898438 0.8125 17.234375 0.8125 C 15.097656 0.8125 13.117188 0.414062 11.296875 -0.375 C 9.484375 -1.175781 7.898438 -2.285156 6.546875 -3.703125 C 5.191406 -5.128906 4.140625 -6.78125 3.390625 -8.65625 C 2.648438 -10.53125 2.28125 -12.539062 2.28125 -14.6875 C 2.28125 -16.84375 2.648438 -18.851562 3.390625 -20.71875 C 4.140625 -22.59375 5.191406 -24.238281 6.546875 -25.65625 C 7.898438 -27.082031 9.484375 -28.195312 11.296875 -29 C 13.117188 -29.8125 15.097656 -30.21875 17.234375 -30.21875 C 19.335938 -30.21875 21.273438 -29.820312 23.046875 -29.03125 C 24.828125 -28.25 26.363281 -27.164062 27.65625 -25.78125 C 28.957031 -24.394531 29.960938 -22.8125 30.671875 -21.03125 C 31.390625 -19.257812 31.75 -17.382812 31.75 -15.40625 Z M 7.515625 -17.78125 L 26.671875 -17.78125 C 26.597656 -18.8125 26.296875 -19.796875 25.765625 -20.734375 C 25.242188 -21.679688 24.550781 -22.515625 23.6875 -23.234375 C 22.820312 -23.953125 21.828125 -24.515625 20.703125 -24.921875 C 19.578125 -25.335938 18.390625 -25.546875 17.140625 -25.546875 C 15.679688 -25.546875 14.285156 -25.25 12.953125 -24.65625 C 11.628906 -24.0625 10.488281 -23.1875 9.53125 -22.03125 C 8.570312 -20.882812 7.898438 -19.46875 7.515625 -17.78125 Z M 7.515625 -17.78125 "/></g></g></g><g fill="#ffffff" fill-opacity="1"><g transform="translate(78.384513, 241.743015)"><g><path d="M 22.765625 0.78125 C 20.453125 0.78125 18.269531 0.441406 16.21875 -0.234375 C 14.164062 -0.921875 12.289062 -1.890625 10.59375 -3.140625 C 8.90625 -4.390625 7.441406 -5.863281 6.203125 -7.5625 C 4.960938 -9.257812 4.003906 -11.125 3.328125 -13.15625 C 2.660156 -15.195312 2.328125 -17.351562 2.328125 -19.625 C 2.328125 -21.90625 2.660156 -24.066406 3.328125 -26.109375 C 4.003906 -28.160156 4.960938 -30.035156 6.203125 -31.734375 C 7.441406 -33.429688 8.90625 -34.898438 10.59375 -36.140625 C 12.289062 -37.378906 14.164062 -38.335938 16.21875 -39.015625 C 18.269531 -39.703125 20.453125 -40.046875 22.765625 -40.046875 C 24.835938 -40.046875 26.863281 -39.75 28.84375 -39.15625 C 30.820312 -38.570312 32.644531 -37.691406 34.3125 -36.515625 C 35.976562 -35.335938 37.40625 -33.859375 38.59375 -32.078125 C 39.789062 -30.296875 40.628906 -28.226562 41.109375 -25.875 L 35.921875 -25.875 C 35.328125 -27.988281 34.382812 -29.742188 33.09375 -31.140625 C 31.8125 -32.546875 30.269531 -33.597656 28.46875 -34.296875 C 26.675781 -34.992188 24.722656 -35.34375 22.609375 -35.34375 C 20.484375 -35.34375 18.5 -34.957031 16.65625 -34.1875 C 14.8125 -33.425781 13.203125 -32.335938 11.828125 -30.921875 C 10.453125 -29.515625 9.375 -27.851562 8.59375 -25.9375 C 7.820312 -24.03125 7.4375 -21.925781 7.4375 -19.625 C 7.4375 -17.3125 7.820312 -15.195312 8.59375 -13.28125 C 9.375 -11.363281 10.453125 -9.707031 11.828125 -8.3125 C 13.203125 -6.914062 14.8125 -5.835938 16.65625 -5.078125 C 18.5 -4.328125 20.484375 -3.953125 22.609375 -3.953125 C 24.722656 -3.953125 26.671875 -4.300781 28.453125 -5 C 30.242188 -5.695312 31.785156 -6.742188 33.078125 -8.140625 C 34.378906 -9.546875 35.316406 -11.296875 35.890625 -13.390625 L 41.109375 -13.390625 C 40.628906 -11.035156 39.796875 -8.96875 38.609375 -7.1875 C 37.429688 -5.40625 36.003906 -3.925781 34.328125 -2.75 C 32.660156 -1.570312 30.835938 -0.6875 28.859375 -0.09375 C 26.890625 0.488281 24.859375 0.78125 22.765625 0.78125 Z M 22.765625 0.78125 "/></g></g></g><g fill="#ffffff" fill-opacity="1"><g transform="translate(122.145916, 241.743015)"><g><path d="M 17.546875 0.828125 C 15.378906 0.828125 13.367188 0.429688 11.515625 -0.359375 C 9.660156 -1.160156 8.039062 -2.269531 6.65625 -3.6875 C 5.269531 -5.101562 4.191406 -6.753906 3.421875 -8.640625 C 2.660156 -10.523438 2.28125 -12.539062 2.28125 -14.6875 C 2.28125 -16.84375 2.660156 -18.851562 3.421875 -20.71875 C 4.191406 -22.59375 5.265625 -24.238281 6.640625 -25.65625 C 8.015625 -27.082031 9.628906 -28.195312 11.484375 -29 C 13.335938 -29.8125 15.359375 -30.21875 17.546875 -30.21875 C 19.734375 -30.21875 21.757812 -29.816406 23.625 -29.015625 C 25.488281 -28.222656 27.109375 -27.113281 28.484375 -25.6875 C 29.867188 -24.269531 30.945312 -22.617188 31.71875 -20.734375 C 32.488281 -18.859375 32.875 -16.84375 32.875 -14.6875 C 32.875 -12.539062 32.488281 -10.523438 31.71875 -8.640625 C 30.945312 -6.753906 29.867188 -5.101562 28.484375 -3.6875 C 27.109375 -2.269531 25.488281 -1.160156 23.625 -0.359375 C 21.757812 0.429688 19.734375 0.828125 17.546875 0.828125 Z M 17.609375 -3.828125 C 19.066406 -3.828125 20.414062 -4.09375 21.65625 -4.625 C 22.90625 -5.164062 24 -5.925781 24.9375 -6.90625 C 25.882812 -7.894531 26.617188 -9.050781 27.140625 -10.375 C 27.660156 -11.695312 27.921875 -13.132812 27.921875 -14.6875 C 27.921875 -16.25 27.660156 -17.6875 27.140625 -19 C 26.617188 -20.3125 25.882812 -21.457031 24.9375 -22.4375 C 24 -23.414062 22.90625 -24.175781 21.65625 -24.71875 C 20.414062 -25.269531 19.066406 -25.546875 17.609375 -25.546875 C 16.140625 -25.546875 14.773438 -25.269531 13.515625 -24.71875 C 12.265625 -24.175781 11.164062 -23.414062 10.21875 -22.4375 C 9.28125 -21.457031 8.546875 -20.3125 8.015625 -19 C 7.492188 -17.6875 7.234375 -16.25 7.234375 -14.6875 C 7.234375 -13.132812 7.492188 -11.695312 8.015625 -10.375 C 8.546875 -9.050781 9.28125 -7.894531 10.21875 -6.90625 C 11.164062 -5.925781 12.265625 -5.164062 13.515625 -4.625 C 14.773438 -4.09375 16.140625 -3.828125 17.609375 -3.828125 Z M 17.609375 -3.828125 "/></g></g></g><g fill="#ffffff" fill-opacity="1"><g transform="translate(157.582739, 241.743015)"><g><path d="M 9.703125 0 L 4.75 0 L 4.75 -40.625 L 9.703125 -40.625 Z M 9.703125 0 "/></g></g></g><g fill="#ffffff" fill-opacity="1"><g transform="translate(172.337731, 241.743015)"><g><path d="M 9.703125 0 L 4.75 0 L 4.75 -40.625 L 9.703125 -40.625 Z M 9.703125 0 "/></g></g></g><g fill="#ffffff" fill-opacity="1"><g transform="translate(187.092724, 241.743015)"><g><path d="M 31.75 -15.40625 C 31.75 -15.15625 31.742188 -14.890625 31.734375 -14.609375 C 31.722656 -14.335938 31.695312 -13.929688 31.65625 -13.390625 L 7.28125 -13.390625 C 7.5 -11.429688 8.078125 -9.734375 9.015625 -8.296875 C 9.953125 -6.859375 11.128906 -5.75 12.546875 -4.96875 C 13.972656 -4.1875 15.492188 -3.796875 17.109375 -3.796875 C 19.085938 -3.796875 20.773438 -4.222656 22.171875 -5.078125 C 23.578125 -5.929688 24.609375 -7.1875 25.265625 -8.84375 L 30.828125 -8.84375 C 30.398438 -7.5 29.769531 -6.238281 28.9375 -5.0625 C 28.101562 -3.894531 27.09375 -2.875 25.90625 -2 C 24.726562 -1.125 23.40625 -0.4375 21.9375 0.0625 C 20.46875 0.5625 18.898438 0.8125 17.234375 0.8125 C 15.097656 0.8125 13.117188 0.414062 11.296875 -0.375 C 9.484375 -1.175781 7.898438 -2.285156 6.546875 -3.703125 C 5.191406 -5.128906 4.140625 -6.78125 3.390625 -8.65625 C 2.648438 -10.53125 2.28125 -12.539062 2.28125 -14.6875 C 2.28125 -16.84375 2.648438 -18.851562 3.390625 -20.71875 C 4.140625 -22.59375 5.191406 -24.238281 6.546875 -25.65625 C 7.898438 -27.082031 9.484375 -28.195312 11.296875 -29 C 13.117188 -29.8125 15.097656 -30.21875 17.234375 -30.21875 C 19.335938 -30.21875 21.273438 -29.820312 23.046875 -29.03125 C 24.828125 -28.25 26.363281 -27.164062 27.65625 -25.78125 C 28.957031 -24.394531 29.960938 -22.8125 30.671875 -21.03125 C 31.390625 -19.257812 31.75 -17.382812 31.75 -15.40625 Z M 7.515625 -17.78125 L 26.671875 -17.78125 C 26.597656 -18.8125 26.296875 -19.796875 25.765625 -20.734375 C 25.242188 -21.679688 24.550781 -22.515625 23.6875 -23.234375 C 22.820312 -23.953125 21.828125 -24.515625 20.703125 -24.921875 C 19.578125 -25.335938 18.390625 -25.546875 17.140625 -25.546875 C 15.679688 -25.546875 14.285156 -25.25 12.953125 -24.65625 C 11.628906 -24.0625 10.488281 -23.1875 9.53125 -22.03125 C 8.570312 -20.882812 7.898438 -19.46875 7.515625 -17.78125 Z M 7.515625 -17.78125 "/></g></g></g><g fill="#ffffff" fill-opacity="1"><g transform="translate(220.945284, 241.743015)"><g><path d="M 17.28125 0.828125 C 15.15625 0.828125 13.179688 0.425781 11.359375 -0.375 C 9.546875 -1.175781 7.957031 -2.285156 6.59375 -3.703125 C 5.226562 -5.128906 4.164062 -6.78125 3.40625 -8.65625 C 2.65625 -10.53125 2.28125 -12.539062 2.28125 -14.6875 C 2.28125 -16.84375 2.65625 -18.851562 3.40625 -20.71875 C 4.164062 -22.59375 5.226562 -24.238281 6.59375 -25.65625 C 7.957031 -27.082031 9.546875 -28.195312 11.359375 -29 C 13.179688 -29.8125 15.15625 -30.21875 17.28125 -30.21875 C 19.625 -30.21875 21.742188 -29.765625 23.640625 -28.859375 C 25.546875 -27.960938 27.164062 -26.726562 28.5 -25.15625 C 29.84375 -23.59375 30.800781 -21.796875 31.375 -19.765625 L 26.28125 -19.765625 C 25.507812 -21.660156 24.320312 -23.097656 22.71875 -24.078125 C 21.113281 -25.054688 19.3125 -25.546875 17.3125 -25.546875 C 16.03125 -25.546875 14.785156 -25.296875 13.578125 -24.796875 C 12.378906 -24.304688 11.300781 -23.585938 10.34375 -22.640625 C 9.382812 -21.703125 8.625 -20.5625 8.0625 -19.21875 C 7.507812 -17.875 7.234375 -16.363281 7.234375 -14.6875 C 7.234375 -13 7.515625 -11.484375 8.078125 -10.140625 C 8.648438 -8.796875 9.414062 -7.648438 10.375 -6.703125 C 11.332031 -5.765625 12.410156 -5.046875 13.609375 -4.546875 C 14.804688 -4.046875 16.039062 -3.796875 17.3125 -3.796875 C 19.289062 -3.796875 21.085938 -4.300781 22.703125 -5.3125 C 24.316406 -6.320312 25.507812 -7.835938 26.28125 -9.859375 L 31.34375 -9.859375 C 30.789062 -7.742188 29.847656 -5.882812 28.515625 -4.28125 C 27.191406 -2.675781 25.566406 -1.421875 23.640625 -0.515625 C 21.722656 0.378906 19.601562 0.828125 17.28125 0.828125 Z M 17.28125 0.828125 "/></g></g></g><g fill="#ffffff" fill-opacity="1"><g transform="translate(254.452186, 241.743015)"><g><path d="M 21.515625 0 L 16.109375 0 C 14.992188 0 13.890625 -0.140625 12.796875 -0.421875 C 11.703125 -0.710938 10.707031 -1.242188 9.8125 -2.015625 C 8.914062 -2.785156 8.195312 -3.882812 7.65625 -5.3125 C 7.125 -6.75 6.859375 -8.609375 6.859375 -10.890625 L 6.859375 -25.03125 L 0.3125 -25.03125 L 0.3125 -29.390625 L 6.859375 -29.390625 L 6.859375 -38.109375 L 11.8125 -38.140625 L 11.8125 -29.390625 L 21.515625 -29.390625 L 21.515625 -25.03125 L 11.8125 -25.03125 L 11.8125 -10.65625 C 11.8125 -9.289062 11.957031 -8.179688 12.25 -7.328125 C 12.550781 -6.472656 12.957031 -5.820312 13.46875 -5.375 C 13.976562 -4.925781 14.546875 -4.617188 15.171875 -4.453125 C 15.796875 -4.285156 16.429688 -4.203125 17.078125 -4.203125 L 21.515625 -4.203125 Z M 21.515625 0 "/></g></g></g><g fill="#ffffff" fill-opacity="1"><g transform="translate(277.906221, 241.743015)"><g><path d="M 7.203125 -35.125 C 6.179688 -35.125 5.367188 -35.429688 4.765625 -36.046875 C 4.160156 -36.660156 3.859375 -37.40625 3.859375 -38.28125 C 3.859375 -39.144531 4.160156 -39.882812 4.765625 -40.5 C 5.367188 -41.113281 6.191406 -41.421875 7.234375 -41.421875 C 8.285156 -41.421875 9.113281 -41.113281 9.71875 -40.5 C 10.320312 -39.882812 10.625 -39.144531 10.625 -38.28125 C 10.625 -37.40625 10.320312 -36.660156 9.71875 -36.046875 C 9.113281 -35.429688 8.273438 -35.125 7.203125 -35.125 Z M 9.703125 0 L 4.75 0 L 4.75 -29.390625 L 9.703125 -29.390625 Z M 9.703125 0 "/></g></g></g><g fill="#ffffff" fill-opacity="1"><g transform="translate(292.661202, 241.743015)"><g><path d="M 17 0 L 12.296875 0 L 0.375 -29.390625 L 5.640625 -29.390625 L 13.9375 -8.640625 L 14.65625 -6.015625 L 15.359375 -8.640625 L 23.65625 -29.390625 L 28.953125 -29.390625 Z M 17 0 "/></g></g></g><g fill="#ffffff" fill-opacity="1"><g transform="translate(322.279471, 241.743015)"><g><path d="M 31.75 -15.40625 C 31.75 -15.15625 31.742188 -14.890625 31.734375 -14.609375 C 31.722656 -14.335938 31.695312 -13.929688 31.65625 -13.390625 L 7.28125 -13.390625 C 7.5 -11.429688 8.078125 -9.734375 9.015625 -8.296875 C 9.953125 -6.859375 11.128906 -5.75 12.546875 -4.96875 C 13.972656 -4.1875 15.492188 -3.796875 17.109375 -3.796875 C 19.085938 -3.796875 20.773438 -4.222656 22.171875 -5.078125 C 23.578125 -5.929688 24.609375 -7.1875 25.265625 -8.84375 L 30.828125 -8.84375 C 30.398438 -7.5 29.769531 -6.238281 28.9375 -5.0625 C 28.101562 -3.894531 27.09375 -2.875 25.90625 -2 C 24.726562 -1.125 23.40625 -0.4375 21.9375 0.0625 C 20.46875 0.5625 18.898438 0.8125 17.234375 0.8125 C 15.097656 0.8125 13.117188 0.414062 11.296875 -0.375 C 9.484375 -1.175781 7.898438 -2.285156 6.546875 -3.703125 C 5.191406 -5.128906 4.140625 -6.78125 3.390625 -8.65625 C 2.648438 -10.53125 2.28125 -12.539062 2.28125 -14.6875 C 2.28125 -16.84375 2.648438 -18.851562 3.390625 -20.71875 C 4.140625 -22.59375 5.191406 -24.238281 6.546875 -25.65625 C 7.898438 -27.082031 9.484375 -28.195312 11.296875 -29 C 13.117188 -29.8125 15.097656 -30.21875 17.234375 -30.21875 C 19.335938 -30.21875 21.273438 -29.820312 23.046875 -29.03125 C 24.828125 -28.25 26.363281 -27.164062 27.65625 -25.78125 C 28.957031 -24.394531 29.960938 -22.8125 30.671875 -21.03125 C 31.390625 -19.257812 31.75 -17.382812 31.75 -15.40625 Z M 7.515625 -17.78125 L 26.671875 -17.78125 C 26.597656 -18.8125 26.296875 -19.796875 25.765625 -20.734375 C 25.242188 -21.679688 24.550781 -22.515625 23.6875 -23.234375 C 22.820312 -23.953125 21.828125 -24.515625 20.703125 -24.921875 C 19.578125 -25.335938 18.390625 -25.546875 17.140625 -25.546875 C 15.679688 -25.546875 14.285156 -25.25 12.953125 -24.65625 C 11.628906 -24.0625 10.488281 -23.1875 9.53125 -22.03125 C 8.570312 -20.882812 7.898438 -19.46875 7.515625 -17.78125 Z M 7.515625 -17.78125 "/></g></g></g></svg>